<svg width="40" height="48" viewBox="0 0 40 48" fill="white" xmlns="http://www.w3.org/2000/svg">
<circle cx="19.7507" cy="21.724" r="4.82756" fill="white"/>
<path d="M6.91153 2.01872C6.79848 0.941617 7.64278 0 8.7258 0H30.5217C31.6318 0 32.4837 0.987175 32.3316 2.08681C30.5453 15.0014 29.8589 23.6511 30.9595 35.4021H28.126L28.6207 20.9194L29.2034 6.49041C27.3661 6.36693 25.9123 4.84336 25.9001 2.97759V2.95386L27.4566 2.95386L27.4458 2.95383H13.1986C13.1986 4.84024 11.725 6.38253 9.86616 6.49226C9.95267 7.87724 10.0394 9.21203 10.1239 10.5128C10.6619 18.7952 11.1104 25.6992 10.8457 35.4021H8.56245C9.25339 24.3234 8.34718 15.6924 6.97184 2.59315L6.91153 2.01872Z" fill="white"/>
<path d="M39.3386 26.5846C39.3386 26.5843 39.3388 26.5846 39.3386 26.5846L39.339 32.7895C39.339 33.791 38.5274 34.5922 37.5364 34.7363C31.1176 35.6696 26.1876 41.1957 26.1876 47.8732C26.1876 47.943 26.1312 48 26.0614 48L19.7484 48C18.7403 48 17.9151 47.18 17.9998 46.1755C18.9256 35.2021 28.1257 26.5846 39.3386 26.5846Z" fill="white"/>
<path d="M0.000433873 26.5846C0.000433873 26.5843 0.000194252 26.5846 0.000433873 26.5846L0 32.7895C0 33.791 0.811584 34.5922 1.80265 34.7363C8.22142 35.6696 13.1514 41.1957 13.1514 47.8732C13.1514 47.943 13.2078 48 13.2776 48L19.5907 48C20.5987 48 21.424 47.18 21.3392 46.1755C20.4134 35.2021 11.2133 26.5846 0.000433873 26.5846Z" fill="white"/>
</svg>
